<svg xmlns="http://www.w3.org/2000/svg" xmlns:se="http://svg-edit.googlecode.com" xmlns:xlink="http://www.w3.org/1999/xlink" xmlns:dc="http://purl.org/dc/elements/1.1/" xmlns:cc="http://creativecommons.org/ns#" xmlns:rdf="http://www.w3.org/1999/02/22-rdf-syntax-ns#" xmlns:inkscape="http://www.inkscape.org/namespaces/inkscape" width="1302.3333333333335" height="983.6666666666674" style="">                                    <title>my vector image</title>                                    <!-- Created with Vector Paint - http://www.vectorpaint.yaks.com/ https://chrome.google.com/webstore/detail/hnbpdiengicdefcjecjbnjnoifekhgdo -->                                    <rect id="backgroundrect" width="100%" height="100%" x="0" y="0" fill="#FFFFFF" stroke="none"/>                                <g class="currentLayer" style=""><title>Layer 1</title><path fill="none" stroke="#06fd67" stroke-opacity="1" stroke-width="2" stroke-dasharray="none" stroke-linejoin="round" stroke-linecap="butt" stroke-dashoffset="" fill-rule="nonzero" opacity="1" marker-start="" marker-mid="" marker-end="" d="M-1397.9430379198973,554.1157127798909 C-1397.9430379198973,281.0897707538659 -706.5399404124205,-98.57010710351517 -247.5991221712296,-83.14003701114109 C211.34169606996136,-67.70997743926694 638.5014578535612,348.42097039986203 758.612065000778,554.1157127798909 C878.7226721479947,759.81046568042 276.06797103570057,1048.2926738436813 -319.66548645955965,1048.2926738436813 C-915.39894395482,1048.2926738436813 -1397.9430379198973,827.141665326416 -1397.9430379198973,554.1157127798909 z" class="" id="svg_8"/><path fill="none" stroke="#06fd67" stroke-opacity="1" stroke-width="2" stroke-dasharray="none" stroke-linejoin="round" stroke-linecap="butt" stroke-dashoffset="" fill-rule="nonzero" opacity="1" marker-start="" marker-mid="" marker-end="" d="M-1455.9430402444784,549.4490453781003 C-1455.9430402444784,276.42310335207526 -764.5399427370016,-103.23677450530579 -305.59912449581077,-87.80670441293171 C153.3416937453802,-72.37664484105755 580.50145552898,343.7543029980714 700.6120626761968,549.4490453781003 C820.7226698234135,755.1437982786293 218.06796871111942,1043.6260064418907 -377.6654887841408,1043.6260064418907 C-973.3989462794011,1043.6260064418907 -1455.9430402444784,822.4749979246254 -1455.9430402444784,549.4490453781003 z" class="" id="svg_1"/><path fill="none" stroke="#06fd67" stroke-opacity="1" stroke-width="2" stroke-dasharray="none" stroke-linejoin="round" stroke-linecap="butt" stroke-dashoffset="" fill-rule="nonzero" opacity="1" marker-start="" marker-mid="" marker-end="" d="M-1507.9430400656645,542.1158136905545 C-1507.9430400656645,269.0898716645295 -816.5399425581877,-110.57000619285157 -357.59912431699684,-95.13993610047748 C101.34169392419415,-79.70987652860333 528.501455707794,336.42107131052563 648.6120628550108,542.1158136905545 C768.7226700022275,747.8105665910836 166.06796888993335,1036.292774754345 -429.66548860532686,1036.292774754345 C-1025.3989461005872,1036.292774754345 -1507.9430400656645,815.1417662370797 -1507.9430400656645,542.1158136905545 z" class="" id="svg_2"/><path fill="none" stroke="#06fd67" stroke-opacity="1" stroke-width="2" stroke-dasharray="none" stroke-linejoin="round" stroke-linecap="butt" stroke-dashoffset="" fill-rule="nonzero" opacity="1" marker-start="" marker-mid="" marker-end="" d="M-1111.9430288599913,562.7824803770894 C-1111.9430288599913,289.75653835106436 -420.5399313525145,-89.90333950631668 38.40088688867638,-74.4732694139426 C497.3417051298674,-59.04320984206845 924.5014669134672,357.0877379970605 1044.6120740606839,562.7824803770894 C1164.7226812079007,768.4772332776184 562.0679800956066,1056.9594414408798 -33.66547739965365,1056.9594414408798 C-629.398934894914,1056.9594414408798 -1111.9430288599913,835.8084329236145 -1111.9430288599913,562.7824803770894 z" class="" id="svg_14"/><path fill="none" stroke="#06fd67" stroke-opacity="1" stroke-width="2" stroke-dasharray="none" stroke-linejoin="round" stroke-linecap="butt" stroke-dashoffset="" fill-rule="nonzero" opacity="1" marker-start="" marker-mid="" marker-end="" d="M-1163.2763637231772,562.1158136905545 C-1163.2763637231772,289.0898716645295 -471.87326621570037,-90.57000619285157 -12.9324479745095,-75.13993610047748 C446.0083702666815,-59.70987652860333 873.1681320502813,356.42107131052563 993.2787391974981,562.1158136905545 C1113.3893463447148,767.8105665910836 510.7346452324207,1056.292774754345 -84.99881226283952,1056.292774754345 C-680.7322697580998,1056.292774754345 -1163.2763637231772,835.1417662370797 -1163.2763637231772,562.1158136905545 z" class="" id="svg_13"/><path fill="none" stroke="#06fd67" stroke-opacity="1" stroke-width="2" stroke-dasharray="none" stroke-linejoin="round" stroke-linecap="butt" stroke-dashoffset="" fill-rule="nonzero" opacity="1" marker-start="" marker-mid="" marker-end="" d="M-1221.9430321382467,562.1158136905545 C-1221.9430321382467,289.0898716645295 -530.53993463077,-90.57000619285157 -71.59911638957908,-75.13993610047748 C387.3417018516119,-59.70987652860333 814.5014636352117,356.42107131052563 934.6120707824285,562.1158136905545 C1054.7226779296452,767.8105665910836 452.0679768173511,1056.292774754345 -143.6654806779091,1056.292774754345 C-739.3989381731694,1056.292774754345 -1221.9430321382467,835.1417662370797 -1221.9430321382467,562.1158136905545 z" class="" id="svg_12"/><path fill="none" stroke="#06fd67" stroke-opacity="1" stroke-width="2" stroke-dasharray="none" stroke-linejoin="round" stroke-linecap="butt" stroke-dashoffset="" fill-rule="nonzero" opacity="1" marker-start="" marker-mid="" marker-end="" d="M-1279.9430338667814,562.1158136905545 C-1279.9430338667814,289.0898716645295 -588.5399363593046,-90.57000619285157 -129.59911811811378,-75.13993610047748 C329.3417001230772,-59.70987652860333 756.501461906677,356.42107131052563 876.6120690538938,562.1158136905545 C996.7226762011105,767.8105665910836 394.0679750888164,1056.292774754345 -201.6654824064438,1056.292774754345 C-797.3989399017041,1056.292774754345 -1279.9430338667814,835.1417662370797 -1279.9430338667814,562.1158136905545 z" class="" id="svg_11"/><path fill="none" stroke="#06fd67" stroke-opacity="1" stroke-width="2" stroke-dasharray="none" stroke-linejoin="round" stroke-linecap="butt" stroke-dashoffset="" fill-rule="nonzero" opacity="1" marker-start="" marker-mid="" marker-end="" d="M-1339.276368968386,559.449146944415 C-1339.276368968386,286.42320491838996 -647.8732714609091,-93.23667293899109 -188.93245321971824,-77.80660284661701 C270.00836502147274,-62.37654327474286 697.1681268050726,353.7544045643861 817.2787339522894,559.449146944415 C937.389341099506,765.143899844944 334.73463998721195,1053.6261080082054 -260.99881750804826,1053.6261080082054 C-856.7322750033086,1053.6261080082054 -1339.276368968386,832.4750994909401 -1339.276368968386,559.449146944415 z" class="" id="svg_10"/><path fill="none" stroke="#06fd67" stroke-opacity="1" stroke-width="2" stroke-dasharray="none" stroke-linejoin="round" stroke-linecap="butt" stroke-dashoffset="" fill-rule="nonzero" opacity="1" marker-start="" marker-mid="" marker-end="" d="M-1797.9430493043844,520.7824791253919 C-1797.9430493043844,247.75653709936682 -1106.5399517969076,-131.90334075801422 -647.5991335557168,-116.47327066564014 C-188.65831531452582,-101.04321109376599 238.50144646907404,315.087736745363 358.61205361629084,520.7824791253919 C478.7226607635075,726.4772320259209 -123.93204034878659,1014.9594401891823 -719.6654978440467,1014.9594401891823 C-1315.3989553393071,1014.9594401891823 -1797.9430493043844,793.808431671917 -1797.9430493043844,520.7824791253919 z" class="" id="svg_9"/><path fill="none" stroke="#06fd67" stroke-opacity="1" stroke-width="2" stroke-dasharray="none" stroke-linejoin="round" stroke-linecap="butt" stroke-dashoffset="" fill-rule="nonzero" opacity="1" marker-start="" marker-mid="" marker-end="" d="M-1748.6097145008032,526.7824793042058 C-1748.6097145008032,253.75653727818076 -1057.2066169933264,-125.90334057920029 -598.2657987521355,-110.47327048682621 C-139.32498051094456,-95.04321091495206 287.8347812726553,321.0877369241769 407.9453884198721,526.7824793042058 C528.0559955670888,732.4772322047348 -74.59870554520535,1020.9594403679962 -670.3321630404655,1020.9594403679962 C-1266.0656205357259,1020.9594403679962 -1748.6097145008032,799.8084318507309 -1748.6097145008032,526.7824793042058 z" class="" id="svg_7"/><path fill="none" stroke="#06fd67" stroke-opacity="1" stroke-width="2" stroke-dasharray="none" stroke-linejoin="round" stroke-linecap="butt" stroke-dashoffset="" fill-rule="nonzero" opacity="1" marker-start="" marker-mid="" marker-end="" d="M-1688.6097127126638,527.4491459907407 C-1688.6097127126638,254.42320396471564 -997.2066152051871,-125.23667389266541 -538.2657969639962,-109.80660380029133 C-79.32497872280521,-94.37654422841717 347.8347830607946,321.7544036107118 467.9453902080114,527.4491459907407 C588.0559973552281,733.1438988912697 -14.598703757066001,1021.6261070545311 -610.3321612523262,1021.6261070545311 C-1206.0656187475865,1021.6261070545311 -1688.6097127126638,800.4750985372658 -1688.6097127126638,527.4491459907407 z" class="" id="svg_6"/><path fill="none" stroke="#06fd67" stroke-opacity="1" stroke-width="2" stroke-dasharray="none" stroke-linejoin="round" stroke-linecap="butt" stroke-dashoffset="" fill-rule="nonzero" opacity="1" marker-start="" marker-mid="" marker-end="" d="M-1632.6097110437338,530.7824794234151 C-1632.6097110437338,257.75653739739005 -941.206613536257,-121.903340459991 -482.26579529506614,-106.47327036761692 C-23.32497705387516,-91.04321079574277 403.8347847297247,325.0877370433862 523.9453918769415,530.7824794234151 C644.0559990241582,736.4772323239441 41.40129791186405,1024.9594404872055 -554.3321595833961,1024.9594404872055 C-1150.0656170786565,1024.9594404872055 -1632.6097110437338,803.8084319699402 -1632.6097110437338,530.7824794234151 z" class="" id="svg_5"/><path fill="none" stroke="#06fd67" stroke-opacity="1" stroke-width="2" stroke-dasharray="none" stroke-linejoin="round" stroke-linecap="butt" stroke-dashoffset="" fill-rule="nonzero" opacity="1" marker-start="" marker-mid="" marker-end="" d="M-1571.9430811332647,534.7824192823285 C-1571.9430811332647,261.75647725630347 -880.539983625788,-117.90340060107758 -421.5991653845971,-102.4733305087035 C37.341652856593896,-87.04327093682934 464.50141464019373,329.0876769022996 584.6120217874105,534.7824192823285 C704.7226289346272,740.4771721828575 102.0679278223331,1028.959380346119 -493.6655296729271,1028.959380346119 C-1089.3989871681874,1028.959380346119 -1571.9430811332647,807.8083718288536 -1571.9430811332647,534.7824192823285 z" class="" id="svg_3"/></g></svg>